<?xml version="1.0" encoding="UTF-8"?>
<svg version="1.1" xmlns="http://www.w3.org/2000/svg" width="613" height="549">
<path d="M0 0 C1.68660311 -0.00782324 1.68660311 -0.00782324 3.40727901 -0.01580453 C4.65297444 -0.01134309 5.89866987 -0.00688164 7.18211365 -0.002285 C8.49731523 -0.00540498 9.8125168 -0.00852497 11.16757298 -0.01173949 C14.83053417 -0.02012511 18.49339179 -0.01594525 22.15635347 -0.00976706 C26.10186768 -0.00525888 30.04736354 -0.01221816 33.99287415 -0.0177269 C41.72701478 -0.0266401 49.46111668 -0.02469034 57.19525886 -0.01890162 C63.47856957 -0.01439269 69.76186941 -0.01376888 76.04518127 -0.01594925 C77.38440811 -0.01640895 77.38440811 -0.01640895 78.75069004 -0.01687793 C80.56418952 -0.01751736 82.37768899 -0.01816578 84.19118845 -0.01882312 C101.21348512 -0.02453205 118.23576028 -0.01795969 135.25805342 -0.00722238 C149.87752633 0.00171364 164.49696748 0.00016175 179.11643982 -0.00905991 C196.07604845 -0.0197526 213.03563821 -0.02398268 229.99524975 -0.01783538 C231.80223783 -0.01719825 233.60922591 -0.01656951 235.41621399 -0.01594925 C236.74997215 -0.01548642 236.74997215 -0.01548642 238.11067492 -0.01501425 C244.38954816 -0.0132843 250.66840948 -0.01620885 256.94728088 -0.02090836 C264.59466721 -0.02650609 272.24201245 -0.02502417 279.88939404 -0.01434687 C283.79439255 -0.00907517 287.69932246 -0.00705874 291.60432053 -0.01364517 C295.8293678 -0.02066387 300.05424048 -0.01230784 304.27928162 -0.002285 C305.52497705 -0.00674645 306.77067247 -0.01120789 308.05411625 -0.01580453 C309.17851832 -0.01058903 310.3029204 -0.00537354 311.46139526 0 C312.92586924 0.00048706 312.92586924 0.00048706 314.41992855 0.00098395 C316.73069763 0.25168228 316.73069763 0.25168228 318.73069763 2.25168228 C318.91898631 5.174302 318.98235887 8.00106651 318.95774841 10.92404556 C318.95798948 11.83620771 318.95823055 12.74836987 318.95847893 13.68817329 C318.9569826 16.64954533 318.94173528 19.61066761 318.92601013 22.57199478 C318.92307069 24.39678196 318.92102964 26.22157082 318.91990662 28.04636002 C318.90940787 34.82315977 318.8814856 41.59992346 318.85569763 48.37668228 C318.81444763 63.51543228 318.77319763 78.65418228 318.73069763 94.25168228 C366.58069763 94.25168228 414.43069763 94.25168228 463.73069763 94.25168228 C463.73069763 134.18168228 463.73069763 174.11168228 463.73069763 215.25168228 C496.59581807 215.21206445 496.59581807 215.21206445 529.46092224 215.16159439 C535.80406189 215.15707779 535.80406189 215.15707779 538.76953125 215.15623856 C540.84948948 215.15469867 542.92944679 215.15117285 545.00939941 215.14610672 C548.15211041 215.13883189 551.29476665 215.13777477 554.43748474 215.13815689 C555.83734194 215.13275973 555.83734194 215.13275973 557.26547909 215.12725353 C563.6166713 215.13765595 563.6166713 215.13765595 564.73069763 216.25168228 C564.82856389 217.81456442 564.85625284 219.38188312 564.85653877 220.94782639 C564.86045039 222.48084027 564.86045039 222.48084027 564.86444104 224.04482412 C564.86221032 225.18127701 564.85997959 226.3177299 564.85768127 227.48862076 C564.85924127 228.68525046 564.86080126 229.88188016 564.86240852 231.11477137 C564.86572183 234.45126223 564.86450932 237.7876973 564.8614223 241.12418485 C564.85917008 244.71658733 564.86264692 248.30898476 564.86540222 251.90138626 C564.86986083 258.94483155 564.86888305 265.98826622 564.86598958 273.03171194 C564.8637359 278.75345852 564.86342287 284.47520211 564.8645134 290.19694901 C564.86474325 291.41608395 564.86474325 291.41608395 564.86497774 292.65984789 C564.86529745 294.31068162 564.86562166 295.96151536 564.86595033 297.61234909 C564.86880539 313.11093184 564.8655177 328.60950868 564.86014996 344.10809046 C564.8556819 357.4214196 564.85645783 370.73474002 564.86106873 384.048069 C564.86641403 399.48925021 564.8685307 414.93042625 564.86545646 430.37160826 C564.8651379 432.01654402 564.86482353 433.66147979 564.8645134 435.30641556 C564.86435912 436.11586417 564.86420485 436.92531277 564.8640459 437.75929013 C564.86318061 443.47756538 564.86464387 449.19583735 564.86699295 454.91411209 C564.86979067 461.87789323 564.86905329 468.84166309 564.86371221 475.80544293 C564.8610748 479.36194805 564.86007078 482.91843434 564.86336136 486.47493935 C564.86686667 490.32155161 564.86269592 494.16813267 564.85768127 498.0147438 C564.859912 499.15119669 564.86214272 500.28764958 564.86444104 501.45854044 C564.86183329 502.48054969 564.85922554 503.50255895 564.85653877 504.55553818 C564.85637642 505.44468084 564.85621407 506.3338235 564.8560468 507.24990988 C564.73069763 509.25168228 564.73069763 509.25168228 563.73069763 510.25168228 C562.01664707 510.34989169 560.29851155 510.37723819 558.58164978 510.37752342 C556.89710819 510.38143504 556.89710819 510.38143504 555.17853546 510.38542569 C553.92924507 510.38319497 552.67995468 510.38096424 551.39280701 510.37866592 C550.07775429 510.38022591 548.76270157 510.38178591 547.40779877 510.38339317 C543.7406734 510.38759108 540.07357386 510.38549373 536.40644836 510.38240695 C532.45821451 510.38015494 528.50998527 510.38363147 524.56175232 510.38638687 C516.82046676 510.3908457 509.07919087 510.3898676 501.33790493 510.38697423 C495.04932005 510.38472064 488.76073788 510.38440748 482.47215271 510.38549805 C481.13228955 510.3857279 481.13228955 510.3857279 479.76535845 510.38596239 C477.95105171 510.3862821 476.13674498 510.38660631 474.32243824 510.38693498 C457.28873712 510.3897901 440.25504137 510.38650224 423.22134113 510.38113461 C408.58904061 510.37666655 393.95674801 510.37744247 379.32444763 510.38205338 C362.35387288 510.38739857 345.38330284 510.38951541 328.41272736 510.38644111 C326.60489909 510.38612254 324.79707082 510.38580817 322.98924255 510.38549805 C322.09963475 510.38534377 321.21002694 510.3851895 320.29346132 510.38503055 C314.00862293 510.38416522 307.72378752 510.38562859 301.43894958 510.3879776 C293.78530025 510.39077519 286.13166119 510.39003821 278.47801304 510.38469686 C274.56911211 510.38205928 270.66022833 510.38105571 266.75132751 510.38434601 C262.52373268 510.38785088 258.29618155 510.38368094 254.06858826 510.37866592 C252.19465267 510.38201201 252.19465267 510.38201201 250.2828598 510.38542569 C249.15983208 510.38281794 248.03680435 510.38021019 246.87974548 510.37752342 C245.90250771 510.37736107 244.92526993 510.37719872 243.91841888 510.37703145 C241.73069763 510.25168228 241.73069763 510.25168228 240.73069763 509.25168228 C240.73069763 489.78168228 240.73069763 470.31168228 240.73069763 450.25168228 C181.00069763 450.25168228 121.27069763 450.25168228 59.73069763 450.25168228 C59.73069763 398.77168228 59.73069763 347.29168228 59.73069763 294.25168228 C38.28069763 294.25168228 16.83069763 294.25168228 -5.26930237 294.25168228 C-7.77986359 291.74112106 -7.51970305 290.9519606 -7.52098465 287.48213577 C-7.52620014 286.46920236 -7.53141564 285.45626894 -7.53678918 284.41264057 C-7.53009701 282.73086295 -7.53009701 282.73086295 -7.52326965 281.01511002 C-7.52638963 279.83058211 -7.52950962 278.64605421 -7.53272414 277.42563152 C-7.53934356 274.12747513 -7.53693098 270.82954498 -7.53075171 267.53140211 C-7.52624262 263.97852881 -7.53320327 260.42567586 -7.53871155 256.87280655 C-7.54762376 249.90869552 -7.54567543 242.94462751 -7.53988627 235.98051476 C-7.53537695 230.32268053 -7.5347537 224.66485838 -7.5369339 219.00702286 C-7.5373936 217.80101336 -7.5373936 217.80101336 -7.53786258 216.57064003 C-7.53850201 214.93752455 -7.53915043 213.30440908 -7.53980777 211.67129362 C-7.54551642 196.34291998 -7.5389448 181.01457022 -7.52820703 165.6862005 C-7.51927104 152.5221434 -7.52082293 139.35812156 -7.53004456 126.19406509 C-7.54073776 110.92206268 -7.54496704 95.65008123 -7.53882003 80.3780756 C-7.5381829 78.75083097 -7.53755416 77.12358634 -7.5369339 75.49634171 C-7.53647107 74.29526084 -7.53647107 74.29526084 -7.5359989 73.06991571 C-7.5342691 67.41621521 -7.53719317 61.76252795 -7.54189301 56.1088295 C-7.54749131 49.22267577 -7.54600762 42.33656766 -7.53533152 35.45041919 C-7.53006057 31.93426931 -7.5280421 28.41819559 -7.53462982 24.9020462 C-7.54165046 21.09740552 -7.53329086 17.29289069 -7.52326965 13.48825455 C-7.5277311 12.36706946 -7.53219254 11.24588438 -7.53678918 10.09072399 C-7.53157368 9.07779058 -7.52635819 8.06485716 -7.52098465 7.02122879 C-7.52065995 6.14212121 -7.52033524 5.26301363 -7.5200007 4.35726643 C-6.96482122 -0.30561709 -3.93158126 0.00130757 0 0 Z " fill="#EE85ED" transform="translate(23.269302368164063,16.74831771850586)"/>
<path d="M0 0 C1.68660311 -0.00782324 1.68660311 -0.00782324 3.40727901 -0.01580453 C4.65297444 -0.01134309 5.89866987 -0.00688164 7.18211365 -0.002285 C8.49731523 -0.00540498 9.8125168 -0.00852497 11.16757298 -0.01173949 C14.83053417 -0.02012511 18.49339179 -0.01594525 22.15635347 -0.00976706 C26.10186768 -0.00525888 30.04736354 -0.01221816 33.99287415 -0.0177269 C41.72701478 -0.0266401 49.46111668 -0.02469034 57.19525886 -0.01890162 C63.47856957 -0.01439269 69.76186941 -0.01376888 76.04518127 -0.01594925 C77.38440811 -0.01640895 77.38440811 -0.01640895 78.75069004 -0.01687793 C80.56418952 -0.01751736 82.37768899 -0.01816578 84.19118845 -0.01882312 C101.21348512 -0.02453205 118.23576028 -0.01795969 135.25805342 -0.00722238 C149.87752633 0.00171364 164.49696748 0.00016175 179.11643982 -0.00905991 C196.07604845 -0.0197526 213.03563821 -0.02398268 229.99524975 -0.01783538 C231.80223783 -0.01719825 233.60922591 -0.01656951 235.41621399 -0.01594925 C236.74997215 -0.01548642 236.74997215 -0.01548642 238.11067492 -0.01501425 C244.38954816 -0.0132843 250.66840948 -0.01620885 256.94728088 -0.02090836 C264.59466721 -0.02650609 272.24201245 -0.02502417 279.88939404 -0.01434687 C283.79439255 -0.00907517 287.69932246 -0.00705874 291.60432053 -0.01364517 C295.8293678 -0.02066387 300.05424048 -0.01230784 304.27928162 -0.002285 C305.52497705 -0.00674645 306.77067247 -0.01120789 308.05411625 -0.01580453 C309.17851832 -0.01058903 310.3029204 -0.00537354 311.46139526 0 C312.92586924 0.00048706 312.92586924 0.00048706 314.41992855 0.00098395 C316.73069763 0.25168228 316.73069763 0.25168228 318.73069763 2.25168228 C318.92634635 5.07013888 318.99548981 7.79021726 318.97793579 10.60972977 C318.98035021 11.48461326 318.98276462 12.35949674 318.9852522 13.26089185 C318.99091454 16.20980087 318.98220704 19.15849569 318.97361755 22.10739517 C318.9746898 24.21441583 318.97662762 26.3214362 318.97937012 28.42845535 C318.9842305 34.16378729 318.97654816 39.8990418 318.96641707 45.63436437 C318.95765708 51.62370041 318.95939361 57.61303388 318.95977783 63.60237503 C318.95884033 73.6610278 318.95014434 83.71965046 318.93650818 93.77829361 C318.92077749 105.42535856 318.91551017 117.07239051 318.91624373 128.71946532 C318.91685305 139.90222576 318.91175668 151.08497541 318.90345192 162.26773262 C318.89991163 167.03687436 318.89808761 171.80601227 318.89755821 176.57515526 C318.89655724 182.18520004 318.89048082 187.79521688 318.88039207 193.40525246 C318.87745926 195.47051828 318.87624327 197.53578732 318.87681961 199.60105515 C318.87730663 202.40760643 318.87169106 205.21407818 318.8644104 208.02061844 C318.865959 208.84900429 318.8675076 209.67739015 318.86910313 210.5308786 C318.84487617 216.13750374 318.84487617 216.13750374 317.73069763 217.25168228 C315.38815981 217.3466095 313.07523659 217.37728019 310.73240662 217.36520767 C309.63491089 217.36542671 309.63491089 217.36542671 308.51524353 217.36565018 C306.0857298 217.36495095 303.6562918 217.35715813 301.22679138 217.34933853 C299.54670249 217.34747439 297.86661306 217.34605047 296.18652344 217.34505081 C291.7559612 217.34122535 287.32543153 217.33139484 282.8948822 217.32034683 C278.37726787 217.31013331 273.8596483 217.30555332 269.34202576 217.30051041 C260.4715687 217.28977259 251.60113587 217.27269584 242.73069763 217.25168228 C242.73291824 218.20159546 242.73513885 219.15150864 242.73742676 220.13020706 C242.7576589 229.06259324 242.77267012 237.9949748 242.7825098 246.92737865 C242.78773845 251.52010868 242.79483575 256.11282028 242.80613708 260.7055397 C242.81696663 265.13401916 242.82297461 269.56248084 242.82557487 273.99097252 C242.827429 275.68433856 242.83104938 277.37770358 242.83642769 279.07106209 C242.84363903 281.4345946 242.84468854 283.79805273 242.84422302 286.16159439 C242.8478183 286.86865524 242.85141357 287.57571609 242.8551178 288.30420303 C242.84474979 293.13763012 242.84474979 293.13763012 241.73069763 294.25168228 C238.56237252 294.35421328 235.41570188 294.39052401 232.24682617 294.38539505 C231.23874545 294.38766061 230.23066472 294.38992616 229.19203609 294.39226037 C225.78637348 294.39863202 222.38075034 294.39776899 218.9750824 294.39694595 C216.54471281 294.39993547 214.1143437 294.40333751 211.68397522 294.40712357 C205.75112614 294.4150664 199.81828645 294.41817913 193.88543314 294.41873594 C189.06520123 294.41921035 184.24497261 294.42126129 179.42474174 294.42443657 C165.77241004 294.43324749 152.1200862 294.43785526 138.46775163 294.4371061 C137.73105457 294.43706614 136.99435751 294.43702618 136.2353363 294.43698502 C135.49774458 294.43694414 134.76015285 294.43690325 134.00020986 294.43686114 C122.04177036 294.43645453 110.08336233 294.44602644 98.12493194 294.46012338 C85.85973378 294.4744684 73.59455098 294.4813946 61.32934421 294.48052961 C54.43787778 294.48019699 47.54644433 294.48297236 40.65498543 294.49370766 C34.17656644 294.50373448 27.69819926 294.50349653 21.21977615 294.49619102 C18.8356421 294.49514 16.45150379 294.49753845 14.06737709 294.50355148 C10.82535181 294.5112016 7.58357224 294.50667328 4.34155273 294.49892044 C3.38699631 294.504064 2.43243988 294.50920757 1.4489575 294.514507 C0.5851934 294.5099082 -0.27857071 294.5053094 -1.16850948 294.50057125 C-1.91753534 294.50078862 -2.6665612 294.50100599 -3.43828481 294.50122994 C-5.26930237 294.25168228 -5.26930237 294.25168228 -7.26930237 292.25168228 C-7.5200007 290.14609814 -7.5200007 290.14609814 -7.52098465 287.48213577 C-7.52620014 286.46920236 -7.53141564 285.45626894 -7.53678918 284.41264057 C-7.53009701 282.73086295 -7.53009701 282.73086295 -7.52326965 281.01511002 C-7.52638963 279.83058211 -7.52950962 278.64605421 -7.53272414 277.42563152 C-7.53934356 274.12747513 -7.53693098 270.82954498 -7.53075171 267.53140211 C-7.52624262 263.97852881 -7.53320327 260.42567586 -7.53871155 256.87280655 C-7.54762376 249.90869552 -7.54567543 242.94462751 -7.53988627 235.98051476 C-7.53537695 230.32268053 -7.5347537 224.66485838 -7.5369339 219.00702286 C-7.5373936 217.80101336 -7.5373936 217.80101336 -7.53786258 216.57064003 C-7.53850201 214.93752455 -7.53915043 213.30440908 -7.53980777 211.67129362 C-7.54551642 196.34291998 -7.5389448 181.01457022 -7.52820703 165.6862005 C-7.51927104 152.5221434 -7.52082293 139.35812156 -7.53004456 126.19406509 C-7.54073776 110.92206268 -7.54496704 95.65008123 -7.53882003 80.3780756 C-7.5381829 78.75083097 -7.53755416 77.12358634 -7.5369339 75.49634171 C-7.53647107 74.29526084 -7.53647107 74.29526084 -7.5359989 73.06991571 C-7.5342691 67.41621521 -7.53719317 61.76252795 -7.54189301 56.1088295 C-7.54749131 49.22267577 -7.54600762 42.33656766 -7.53533152 35.45041919 C-7.53006057 31.93426931 -7.5280421 28.41819559 -7.53462982 24.9020462 C-7.54165046 21.09740552 -7.53329086 17.29289069 -7.52326965 13.48825455 C-7.5277311 12.36706946 -7.53219254 11.24588438 -7.53678918 10.09072399 C-7.53157368 9.07779058 -7.52635819 8.06485716 -7.52098465 7.02122879 C-7.52065995 6.14212121 -7.52033524 5.26301363 -7.5200007 4.35726643 C-6.96482122 -0.30561709 -3.93158126 0.00130757 0 0 Z " fill="#000000" transform="translate(23.269302368164063,16.74831771850586)"/>
<path d="M0 0 C60.39 0 120.78 0 183 0 C183 51.48 183 102.96 183 156 C122.61 156 62.22 156 0 156 C0 104.52 0 53.04 0 0 Z " fill="#00A8F3" transform="translate(83,311)"/>
<path d="M0 0 C47.85 0 95.7 0 145 0 C145 40.59 145 81.18 145 123 C97.15 123 49.3 123 0 123 C0 82.41 0 41.82 0 0 Z " fill="#FFCA18" transform="translate(342,111)"/>
</svg>
